<svg xmlns="http://www.w3.org/2000/svg" version="1.1" xmlns:xlink="http://www.w3.org/1999/xlink" xmlns:svgjs="http://svgjs.dev/svgjs" width="2000" height="2084" viewBox="0 0 2000 2084"><g transform="matrix(1,0,0,1,-3.372110624447373,-3.3612903225807713)"><svg viewBox="0 0 238 248" data-background-color="#4a4b7b" preserveAspectRatio="xMidYMid meet" height="2084" width="2000" xmlns="http://www.w3.org/2000/svg" xmlns:xlink="http://www.w3.org/1999/xlink"><g id="tight-bounds" transform="matrix(1,0,0,1,0.4012811643092391,0.4000000000000057)"><svg viewBox="0 0 237.1974376713815 247.2" height="247.2" width="237.1974376713815"><g><svg viewBox="0 0 395.52 412.1989889935329" height="247.2" width="237.1974376713815"><g transform="matrix(1,0,0,1,0,308.43419857437124)"><svg viewBox="0 0 395.52 103.76479041916166" height="103.76479041916166" width="395.52"><g id="textblocktransform"><svg viewBox="0 0 395.52 103.76479041916166" height="103.76479041916166" width="395.52" id="textblock"><g><svg viewBox="0 0 395.52 103.76479041916166" height="103.76479041916166" width="395.52"><g transform="matrix(1,0,0,1,0,0)"><svg width="395.52" viewBox="2.75 -34.45 133.59 35.050000000000004" height="103.76479041916166" data-palette-color="#302745"><path d="M27.95-34.45L30.25 0 25.95 0 25.05-15.65Q24.4-25.35 24.5-29.8L24.5-29.8 18.65-3.9 14.4-3.9 8.25-29.85 8.3-27.55Q8.3-23.65 7.9-15.35L7.9-15.35 7.05 0 2.75 0 5.1-34.45 11-34.45 16.6-9.2 21.9-34.45 27.95-34.45ZM51.85-5.6Q51.85-4.2 52.25-3.53 52.65-2.85 53.55-2.45L53.55-2.45 52.6 0.6Q50.75 0.3 49.67-0.58 48.6-1.45 48.15-3.2L48.15-3.2Q46 0.6 41.85 0.6L41.85 0.6Q38.6 0.6 36.67-1.58 34.75-3.75 34.75-7.35L34.75-7.35Q34.75-11.55 37.35-13.78 39.95-16 44.9-16L44.9-16 47.5-16 47.5-18.4Q47.5-21 46.47-22.2 45.45-23.4 43.3-23.4L43.3-23.4Q40.75-23.4 37.35-22.05L37.35-22.05 36.25-25.15Q40.3-26.9 43.85-26.9L43.85-26.9Q47.9-26.9 49.87-24.73 51.85-22.55 51.85-18.6L51.85-18.6 51.85-5.6ZM42.75-2.7Q45.85-2.7 47.5-6.9L47.5-6.9 47.5-13.05 45.4-13.05Q42.25-13.05 40.77-11.7 39.3-10.35 39.3-7.55L39.3-7.55Q39.3-5.15 40.2-3.93 41.1-2.7 42.75-2.7L42.75-2.7ZM65.59-26.9Q69.95-26.9 73.05-23.95L73.05-23.95 71.15-21.4Q69.75-22.45 68.45-22.98 67.15-23.5 65.7-23.5L65.7-23.5Q63.95-23.5 62.92-22.53 61.9-21.55 61.9-19.85L61.9-19.85Q61.9-18.2 62.9-17.25 63.9-16.3 66.7-15.3L66.7-15.3Q70.3-14 72-12.2 73.7-10.4 73.7-7.3L73.7-7.3Q73.7-3.55 71.17-1.48 68.65 0.6 64.89 0.6L64.89 0.6Q59.9 0.6 56.55-2.85L56.55-2.85 58.84-5.3Q61.65-2.85 64.8-2.85L64.8-2.85Q66.8-2.85 68-3.95 69.2-5.05 69.2-7.05L69.2-7.05Q69.2-8.4 68.75-9.25 68.3-10.1 67.2-10.8 66.09-11.5 64-12.25L64-12.25Q60.5-13.55 59-15.33 57.5-17.1 57.5-19.7L57.5-19.7Q57.5-21.7 58.52-23.35 59.55-25 61.4-25.95 63.25-26.9 65.59-26.9L65.59-26.9ZM95.89-13.95Q95.89-12.85 95.79-11.65L95.79-11.65 81.99-11.65Q82.19-6.9 83.57-4.95 84.94-3 87.49-3L87.49-3Q89.14-3 90.44-3.53 91.74-4.05 93.14-5.2L93.14-5.2 95.09-2.55Q91.79 0.6 87.34 0.6L87.34 0.6Q82.64 0.6 80.04-2.88 77.44-6.35 77.44-12.9L77.44-12.9Q77.44-19.45 79.92-23.18 82.39-26.9 86.89-26.9L86.89-26.9Q91.24-26.9 93.57-23.63 95.89-20.35 95.89-13.95L95.89-13.95ZM91.64-14.9L91.64-15.25Q91.64-19.55 90.49-21.5 89.34-23.45 86.89-23.45L86.89-23.45Q84.69-23.45 83.44-21.48 82.19-19.5 81.99-14.9L81.99-14.9 91.64-14.9ZM118.59-13.95Q118.59-12.85 118.49-11.65L118.49-11.65 104.69-11.65Q104.89-6.9 106.27-4.95 107.64-3 110.19-3L110.19-3Q111.84-3 113.14-3.53 114.44-4.05 115.84-5.2L115.84-5.2 117.79-2.55Q114.49 0.6 110.04 0.6L110.04 0.6Q105.34 0.6 102.74-2.88 100.14-6.35 100.14-12.9L100.14-12.9Q100.14-19.45 102.62-23.18 105.09-26.9 109.59-26.9L109.59-26.9Q113.94-26.9 116.27-23.63 118.59-20.35 118.59-13.95L118.59-13.95ZM114.34-14.9L114.34-15.25Q114.34-19.55 113.19-21.5 112.04-23.45 109.59-23.45L109.59-23.45Q107.39-23.45 106.14-21.48 104.89-19.5 104.69-14.9L104.69-14.9 114.34-14.9ZM134.34-26.9Q135.44-26.9 136.34-26.6L136.34-26.6 135.59-22.35Q134.59-22.6 133.79-22.6L133.79-22.6Q131.84-22.6 130.59-20.85 129.34-19.1 128.64-15.5L128.64-15.5 128.64 0 124.24 0 124.24-26.35 128.04-26.35 128.39-21.45Q130.24-26.9 134.34-26.9L134.34-26.9Z" opacity="1" transform="matrix(1,0,0,1,0,0)" fill="#302745" class="wordmark-text-0" data-fill-palette-color="primary" id="text-0"></path></svg></g></svg></g></svg></g></svg></g><g transform="matrix(1,0,0,1,60.81803994339913,0)"><svg viewBox="0 0 273.8839201132017 283.9378219113772" height="283.9378219113772" width="273.8839201132017"><g><svg xmlns="http://www.w3.org/2000/svg" xmlns:xlink="http://www.w3.org/1999/xlink" version="1.1" x="0" y="0" viewBox="7.259 5.689 85.484 88.62200000000001" enable-background="new 0 0 100 100" xml:space="preserve" height="283.9378219113772" width="273.8839201132017" class="icon-icon-0" data-fill-palette-color="accent" id="icon-0"><path d="M30.487 51.552C29.467 51.552 28.503 51.781 27.633 52.186 28.096 52.616 28.389 53.222 28.389 53.902A2.35 2.35 0 0 1 26.038 56.254C25.358 56.254 24.752 55.962 24.32 55.5A6.8 6.8 0 0 0 23.688 58.353C23.688 62.109 26.732 65.152 30.487 65.152S37.287 62.109 37.287 58.353A6.8 6.8 0 0 0 30.487 51.552" fill="#302745" data-fill-palette-color="accent"></path><path d="M81.67 38.557A41.7 41.7 0 0 0 90.34 21.604C81.762 30.692 66.783 36.719 49.725 36.719S17.686 30.692 9.108 21.604A41.7 41.7 0 0 0 17.976 38.784C11.533 42.914 7.259 50.131 7.259 58.352 7.259 71.181 17.659 81.581 30.488 81.581 38.672 81.581 45.864 77.345 50.001 70.951 54.139 77.345 61.329 81.581 69.515 81.581 82.344 81.581 92.743 71.182 92.743 58.352 92.741 49.98 88.312 42.646 81.67 38.557M30.487 74.001C21.844 74.001 14.838 66.995 14.838 58.352S21.844 42.701 30.487 42.701 46.138 49.71 46.138 58.352C46.139 66.995 39.13 74.001 30.487 74.001M69.514 74.001C60.869 74.001 53.864 66.995 53.864 58.352S60.87 42.701 69.514 42.701 85.163 49.71 85.163 58.352C85.163 66.995 78.156 74.001 69.514 74.001" fill="#302745" data-fill-palette-color="accent"></path><path d="M73.961 56.253A2.35 2.35 0 0 1 71.61 53.901C71.61 53.221 71.903 52.615 72.364 52.185A6.7 6.7 0 0 0 69.513 51.551 6.8 6.8 0 1 0 69.513 65.15 6.8 6.8 0 0 0 76.312 58.351 6.7 6.7 0 0 0 75.677 55.498 2.33 2.33 0 0 1 73.961 56.253" fill="#302745" data-fill-palette-color="accent"></path><polygon points="50,94.311 43.093,82.586 50,75.164 56.907,82.586 " fill="#302745" data-fill-palette-color="accent"></polygon><path d="M48.004 28.341L32.105 22.216V32.028C37.603 33.537 43.566 34.343 49.725 34.343 54.62 34.343 59.391 33.832 63.902 32.867V22.217z" fill="#302745" data-fill-palette-color="accent"></path><polygon points="48.004,26.198 19.375,15.169 48.004,5.689 76.635,15.169 " fill="#302745" data-fill-palette-color="accent"></polygon></svg></g></svg></g><g></g></svg></g><defs></defs></svg><rect width="237.1974376713815" height="247.2" fill="none" stroke="none" visibility="hidden"></rect></g></svg></g></svg>